<mxfile host="app.diagrams.net" modified="2023-11-14T19:44:48.107Z" agent="Mozilla/5.0 (Windows NT 10.0; Win64; x64) AppleWebKit/537.36 (KHTML, like Gecko) Chrome/118.0.0.0 Safari/537.36 OPR/104.0.0.0" etag="UWCXJ72g7AmcjEQRrvyk" version="22.1.1" type="device">
  <diagram name="Page-1" id="0BG4JVXyCKxln4ZqfxGC">
    <mxGraphModel dx="1520" dy="715" grid="1" gridSize="10" guides="1" tooltips="1" connect="1" arrows="1" fold="1" page="1" pageScale="1" pageWidth="850" pageHeight="1100" math="0" shadow="0">
      <root>
        <mxCell id="0" />
        <mxCell id="1" parent="0" />
        <mxCell id="MnjqV8rqZ6TKMYj_u7_5-37" value="Форум" style="swimlane;whiteSpace=wrap;html=1;" vertex="1" parent="1">
          <mxGeometry x="60" y="400" width="360" height="440" as="geometry" />
        </mxCell>
        <mxCell id="MnjqV8rqZ6TKMYj_u7_5-38" value="Опублікувати" style="rounded=1;whiteSpace=wrap;html=1;" vertex="1" parent="MnjqV8rqZ6TKMYj_u7_5-37">
          <mxGeometry x="236.25" y="205" width="100" height="30" as="geometry" />
        </mxCell>
        <mxCell id="MnjqV8rqZ6TKMYj_u7_5-49" value="" style="rounded=0;whiteSpace=wrap;html=1;" vertex="1" parent="MnjqV8rqZ6TKMYj_u7_5-37">
          <mxGeometry x="93.75" y="135" width="242.5" height="60" as="geometry" />
        </mxCell>
        <mxCell id="MnjqV8rqZ6TKMYj_u7_5-50" value="Текст" style="text;html=1;strokeColor=none;fillColor=none;align=right;verticalAlign=middle;whiteSpace=wrap;rounded=0;" vertex="1" parent="MnjqV8rqZ6TKMYj_u7_5-37">
          <mxGeometry x="23.75" y="135" width="60" height="30" as="geometry" />
        </mxCell>
        <mxCell id="MnjqV8rqZ6TKMYj_u7_5-51" value="Заголовок" style="text;html=1;strokeColor=none;fillColor=none;align=left;verticalAlign=middle;whiteSpace=wrap;rounded=0;" vertex="1" parent="MnjqV8rqZ6TKMYj_u7_5-37">
          <mxGeometry x="23.75" y="100" width="60" height="30" as="geometry" />
        </mxCell>
        <mxCell id="MnjqV8rqZ6TKMYj_u7_5-52" value="" style="rounded=0;whiteSpace=wrap;html=1;" vertex="1" parent="MnjqV8rqZ6TKMYj_u7_5-37">
          <mxGeometry x="93.75" y="105" width="240" height="20" as="geometry" />
        </mxCell>
        <mxCell id="MnjqV8rqZ6TKMYj_u7_5-54" value="" style="shape=image;html=1;verticalAlign=top;verticalLabelPosition=bottom;labelBackgroundColor=#ffffff;imageAspect=0;aspect=fixed;image=https://cdn4.iconfinder.com/data/icons/evil-icons-user-interface/64/clip-128.png" vertex="1" parent="MnjqV8rqZ6TKMYj_u7_5-37">
          <mxGeometry x="93.75" y="197" width="38" height="38" as="geometry" />
        </mxCell>
        <mxCell id="MnjqV8rqZ6TKMYj_u7_5-56" value="Заголовок1" style="swimlane;whiteSpace=wrap;html=1;rounded=1" vertex="1" parent="MnjqV8rqZ6TKMYj_u7_5-37">
          <mxGeometry x="20" y="275" width="320" height="60" as="geometry">
            <mxRectangle x="20" y="220" width="110" height="30" as="alternateBounds" />
          </mxGeometry>
        </mxCell>
        <mxCell id="MnjqV8rqZ6TKMYj_u7_5-57" value="Текст1" style="text;html=1;align=center;verticalAlign=middle;resizable=0;points=[];autosize=1;strokeColor=none;fillColor=none;" vertex="1" parent="MnjqV8rqZ6TKMYj_u7_5-56">
          <mxGeometry x="130" y="30" width="60" height="30" as="geometry" />
        </mxCell>
        <mxCell id="MnjqV8rqZ6TKMYj_u7_5-58" value="&lt;font style=&quot;font-size: 9px;&quot;&gt;Логін користувача1&lt;/font&gt;" style="text;html=1;strokeColor=none;fillColor=none;align=center;verticalAlign=middle;whiteSpace=wrap;rounded=0;" vertex="1" parent="MnjqV8rqZ6TKMYj_u7_5-37">
          <mxGeometry x="20" y="275" width="130" height="20" as="geometry" />
        </mxCell>
        <mxCell id="MnjqV8rqZ6TKMYj_u7_5-59" value="" style="endArrow=none;html=1;rounded=0;exitX=0.906;exitY=0.05;exitDx=0;exitDy=0;exitPerimeter=0;entryX=0.909;entryY=1.11;entryDx=0;entryDy=0;entryPerimeter=0;" edge="1" parent="MnjqV8rqZ6TKMYj_u7_5-37" source="MnjqV8rqZ6TKMYj_u7_5-58" target="MnjqV8rqZ6TKMYj_u7_5-58">
          <mxGeometry width="50" height="50" relative="1" as="geometry">
            <mxPoint x="-50" y="105" as="sourcePoint" />
            <mxPoint x="140" y="295" as="targetPoint" />
          </mxGeometry>
        </mxCell>
        <mxCell id="MnjqV8rqZ6TKMYj_u7_5-64" value="Заголовок2" style="swimlane;whiteSpace=wrap;html=1;rounded=1" vertex="1" parent="MnjqV8rqZ6TKMYj_u7_5-37">
          <mxGeometry x="20" y="345" width="320" height="60" as="geometry">
            <mxRectangle x="20" y="220" width="110" height="30" as="alternateBounds" />
          </mxGeometry>
        </mxCell>
        <mxCell id="MnjqV8rqZ6TKMYj_u7_5-65" value="Текст2" style="text;html=1;align=center;verticalAlign=middle;resizable=0;points=[];autosize=1;strokeColor=none;fillColor=none;" vertex="1" parent="MnjqV8rqZ6TKMYj_u7_5-64">
          <mxGeometry x="130" y="30" width="60" height="30" as="geometry" />
        </mxCell>
        <mxCell id="MnjqV8rqZ6TKMYj_u7_5-66" value="&lt;font style=&quot;font-size: 9px;&quot;&gt;Логін користувача2&lt;/font&gt;" style="text;html=1;strokeColor=none;fillColor=none;align=center;verticalAlign=middle;whiteSpace=wrap;rounded=0;" vertex="1" parent="MnjqV8rqZ6TKMYj_u7_5-37">
          <mxGeometry x="20" y="345" width="130" height="20" as="geometry" />
        </mxCell>
        <mxCell id="MnjqV8rqZ6TKMYj_u7_5-67" value="" style="endArrow=none;html=1;rounded=0;exitX=0.906;exitY=0.05;exitDx=0;exitDy=0;exitPerimeter=0;entryX=0.909;entryY=1.11;entryDx=0;entryDy=0;entryPerimeter=0;" edge="1" parent="MnjqV8rqZ6TKMYj_u7_5-37" source="MnjqV8rqZ6TKMYj_u7_5-66" target="MnjqV8rqZ6TKMYj_u7_5-66">
          <mxGeometry width="50" height="50" relative="1" as="geometry">
            <mxPoint x="-50" y="175" as="sourcePoint" />
            <mxPoint x="140" y="365" as="targetPoint" />
          </mxGeometry>
        </mxCell>
        <mxCell id="MnjqV8rqZ6TKMYj_u7_5-68" value="" style="endArrow=none;dashed=1;html=1;dashPattern=1 3;strokeWidth=2;rounded=0;" edge="1" parent="MnjqV8rqZ6TKMYj_u7_5-37">
          <mxGeometry width="50" height="50" relative="1" as="geometry">
            <mxPoint x="140" y="425" as="sourcePoint" />
            <mxPoint x="220" y="425" as="targetPoint" />
          </mxGeometry>
        </mxCell>
        <mxCell id="MnjqV8rqZ6TKMYj_u7_5-70" value="Торгова ділянка" style="rounded=1;whiteSpace=wrap;html=1;" vertex="1" parent="MnjqV8rqZ6TKMYj_u7_5-37">
          <mxGeometry x="180" y="20" width="180" height="40" as="geometry" />
        </mxCell>
        <mxCell id="MnjqV8rqZ6TKMYj_u7_5-72" value="Персональний кабінет" style="rounded=1;whiteSpace=wrap;html=1;" vertex="1" parent="MnjqV8rqZ6TKMYj_u7_5-37">
          <mxGeometry y="20" width="180" height="40" as="geometry" />
        </mxCell>
        <mxCell id="MnjqV8rqZ6TKMYj_u7_5-55" value="" style="endArrow=none;html=1;rounded=0;" edge="1" parent="MnjqV8rqZ6TKMYj_u7_5-37">
          <mxGeometry width="50" height="50" relative="1" as="geometry">
            <mxPoint y="250" as="sourcePoint" />
            <mxPoint x="360" y="250" as="targetPoint" />
          </mxGeometry>
        </mxCell>
        <mxCell id="MnjqV8rqZ6TKMYj_u7_5-113" value="&lt;b&gt;&lt;font style=&quot;font-size: 14px;&quot;&gt;Форум&lt;/font&gt;&lt;/b&gt;" style="text;html=1;strokeColor=none;fillColor=none;align=center;verticalAlign=middle;whiteSpace=wrap;rounded=0;" vertex="1" parent="MnjqV8rqZ6TKMYj_u7_5-37">
          <mxGeometry x="150" y="60" width="60" height="30" as="geometry" />
        </mxCell>
        <mxCell id="MnjqV8rqZ6TKMYj_u7_5-140" value="Пост" style="swimlane;whiteSpace=wrap;html=1;" vertex="1" parent="1">
          <mxGeometry x="460" y="660" width="310" height="380" as="geometry" />
        </mxCell>
        <mxCell id="MnjqV8rqZ6TKMYj_u7_5-145" value="Заголовок" style="text;html=1;strokeColor=none;fillColor=none;align=left;verticalAlign=middle;whiteSpace=wrap;rounded=0;" vertex="1" parent="MnjqV8rqZ6TKMYj_u7_5-140">
          <mxGeometry x="125" y="30" width="60" height="30" as="geometry" />
        </mxCell>
        <mxCell id="MnjqV8rqZ6TKMYj_u7_5-150" value="Тест" style="text;html=1;strokeColor=none;fillColor=none;align=center;verticalAlign=middle;whiteSpace=wrap;rounded=0;" vertex="1" parent="MnjqV8rqZ6TKMYj_u7_5-140">
          <mxGeometry x="125" y="60" width="60" height="30" as="geometry" />
        </mxCell>
        <mxCell id="MnjqV8rqZ6TKMYj_u7_5-154" value="&lt;font style=&quot;font-size: 9px;&quot;&gt;Зображення1&lt;/font&gt;" style="rounded=0;whiteSpace=wrap;html=1;" vertex="1" parent="MnjqV8rqZ6TKMYj_u7_5-140">
          <mxGeometry x="22.5" y="90" width="66.25" height="60" as="geometry" />
        </mxCell>
        <mxCell id="MnjqV8rqZ6TKMYj_u7_5-155" value="&lt;font style=&quot;font-size: 9px;&quot;&gt;Зображення2&lt;/font&gt;" style="rounded=0;whiteSpace=wrap;html=1;" vertex="1" parent="MnjqV8rqZ6TKMYj_u7_5-140">
          <mxGeometry x="88.75" y="90" width="66.25" height="60" as="geometry" />
        </mxCell>
        <mxCell id="MnjqV8rqZ6TKMYj_u7_5-156" value="&lt;font style=&quot;font-size: 9px;&quot;&gt;Зображення3&lt;/font&gt;" style="rounded=0;whiteSpace=wrap;html=1;" vertex="1" parent="MnjqV8rqZ6TKMYj_u7_5-140">
          <mxGeometry x="155" y="90" width="66.25" height="60" as="geometry" />
        </mxCell>
        <mxCell id="MnjqV8rqZ6TKMYj_u7_5-157" value="&lt;font style=&quot;font-size: 9px;&quot;&gt;Зображення4&lt;/font&gt;" style="rounded=0;whiteSpace=wrap;html=1;" vertex="1" parent="MnjqV8rqZ6TKMYj_u7_5-140">
          <mxGeometry x="221.25" y="90" width="66.25" height="60" as="geometry" />
        </mxCell>
        <mxCell id="MnjqV8rqZ6TKMYj_u7_5-159" value="" style="rounded=0;whiteSpace=wrap;html=1;" vertex="1" parent="MnjqV8rqZ6TKMYj_u7_5-140">
          <mxGeometry x="20" y="170" width="270" height="30" as="geometry" />
        </mxCell>
        <mxCell id="MnjqV8rqZ6TKMYj_u7_5-160" value="Залишити повідомлення" style="rounded=1;whiteSpace=wrap;html=1;" vertex="1" parent="MnjqV8rqZ6TKMYj_u7_5-140">
          <mxGeometry x="150" y="210" width="140" height="20" as="geometry" />
        </mxCell>
        <mxCell id="MnjqV8rqZ6TKMYj_u7_5-153" value="" style="endArrow=none;html=1;rounded=0;exitX=0;exitY=0.5;exitDx=0;exitDy=0;entryX=1;entryY=0.5;entryDx=0;entryDy=0;" edge="1" parent="MnjqV8rqZ6TKMYj_u7_5-140">
          <mxGeometry width="50" height="50" relative="1" as="geometry">
            <mxPoint y="160" as="sourcePoint" />
            <mxPoint x="310" y="160" as="targetPoint" />
          </mxGeometry>
        </mxCell>
        <mxCell id="MnjqV8rqZ6TKMYj_u7_5-161" value="" style="endArrow=none;html=1;rounded=0;exitX=0;exitY=0.5;exitDx=0;exitDy=0;entryX=1;entryY=0.5;entryDx=0;entryDy=0;" edge="1" parent="MnjqV8rqZ6TKMYj_u7_5-140">
          <mxGeometry width="50" height="50" relative="1" as="geometry">
            <mxPoint y="240" as="sourcePoint" />
            <mxPoint x="310" y="240" as="targetPoint" />
          </mxGeometry>
        </mxCell>
        <mxCell id="MnjqV8rqZ6TKMYj_u7_5-163" value="" style="shape=ext;double=1;rounded=0;whiteSpace=wrap;html=1;" vertex="1" parent="MnjqV8rqZ6TKMYj_u7_5-140">
          <mxGeometry x="20" y="250" width="270" height="50" as="geometry" />
        </mxCell>
        <mxCell id="MnjqV8rqZ6TKMYj_u7_5-162" value="&lt;font style=&quot;font-size: 9px;&quot;&gt;Логін користувача1&lt;/font&gt;" style="text;html=1;strokeColor=none;fillColor=none;align=center;verticalAlign=middle;whiteSpace=wrap;rounded=0;" vertex="1" parent="MnjqV8rqZ6TKMYj_u7_5-140">
          <mxGeometry x="22.5" y="250" width="90" height="30" as="geometry" />
        </mxCell>
        <mxCell id="MnjqV8rqZ6TKMYj_u7_5-164" value="Текст повідомлення1" style="text;html=1;strokeColor=none;fillColor=none;align=center;verticalAlign=middle;whiteSpace=wrap;rounded=0;" vertex="1" parent="MnjqV8rqZ6TKMYj_u7_5-140">
          <mxGeometry x="22.5" y="270" width="267.5" height="30" as="geometry" />
        </mxCell>
        <mxCell id="MnjqV8rqZ6TKMYj_u7_5-165" value="" style="shape=ext;double=1;rounded=0;whiteSpace=wrap;html=1;" vertex="1" parent="MnjqV8rqZ6TKMYj_u7_5-140">
          <mxGeometry x="20" y="310" width="270" height="50" as="geometry" />
        </mxCell>
        <mxCell id="MnjqV8rqZ6TKMYj_u7_5-166" value="&lt;font style=&quot;font-size: 9px;&quot;&gt;Логін користувача2&lt;/font&gt;" style="text;html=1;strokeColor=none;fillColor=none;align=center;verticalAlign=middle;whiteSpace=wrap;rounded=0;" vertex="1" parent="MnjqV8rqZ6TKMYj_u7_5-140">
          <mxGeometry x="22.5" y="310" width="90" height="30" as="geometry" />
        </mxCell>
        <mxCell id="MnjqV8rqZ6TKMYj_u7_5-167" value="Текст повідомлення2" style="text;html=1;strokeColor=none;fillColor=none;align=center;verticalAlign=middle;whiteSpace=wrap;rounded=0;" vertex="1" parent="MnjqV8rqZ6TKMYj_u7_5-140">
          <mxGeometry x="22.5" y="330" width="267.5" height="30" as="geometry" />
        </mxCell>
        <mxCell id="MnjqV8rqZ6TKMYj_u7_5-169" style="edgeStyle=orthogonalEdgeStyle;rounded=0;orthogonalLoop=1;jettySize=auto;html=1;entryX=0.5;entryY=0;entryDx=0;entryDy=0;" edge="1" parent="1" source="MnjqV8rqZ6TKMYj_u7_5-56" target="MnjqV8rqZ6TKMYj_u7_5-140">
          <mxGeometry relative="1" as="geometry" />
        </mxCell>
      </root>
    </mxGraphModel>
  </diagram>
</mxfile>
